<svg width="1024" height="1024" viewBox="0 0 1024 1024" fill="none" xmlns="http://www.w3.org/2000/svg">
  <defs>
    <linearGradient id="bg" x1="182" y1="104" x2="854" y2="930" gradientUnits="userSpaceOnUse">
      <stop stop-color="#123C68"/>
      <stop offset="1" stop-color="#1899C9"/>
    </linearGradient>
    <linearGradient id="cardFront" x1="314" y1="276" x2="726" y2="764" gradientUnits="userSpaceOnUse">
      <stop stop-color="#F7FBFF"/>
      <stop offset="1" stop-color="#DCEEFF"/>
    </linearGradient>
    <linearGradient id="cardBackLeft" x1="202" y1="248" x2="524" y2="604" gradientUnits="userSpaceOnUse">
      <stop stop-color="#37C9D1"/>
      <stop offset="1" stop-color="#127EA4"/>
    </linearGradient>
    <linearGradient id="cardBackRight" x1="528" y1="206" x2="854" y2="592" gradientUnits="userSpaceOnUse">
      <stop stop-color="#1E5B9F"/>
      <stop offset="1" stop-color="#0D345D"/>
    </linearGradient>
    <linearGradient id="wrench" x1="634" y1="650" x2="786" y2="820" gradientUnits="userSpaceOnUse">
      <stop stop-color="#FFD37A"/>
      <stop offset="1" stop-color="#F29B36"/>
    </linearGradient>
    <radialGradient id="glowTop" cx="0" cy="0" r="1" gradientUnits="userSpaceOnUse" gradientTransform="translate(315 212) rotate(49.5) scale(367 331)">
      <stop stop-color="#7BEAFF" stop-opacity="0.34"/>
      <stop offset="1" stop-color="#7BEAFF" stop-opacity="0"/>
    </radialGradient>
    <radialGradient id="glowBottom" cx="0" cy="0" r="1" gradientUnits="userSpaceOnUse" gradientTransform="translate(744 772) rotate(128.63) scale(356 322)">
      <stop stop-color="#49F3FF" stop-opacity="0.3"/>
      <stop offset="1" stop-color="#49F3FF" stop-opacity="0"/>
    </radialGradient>
    <filter id="shadowStrong" x="114" y="144" width="796" height="772" filterUnits="userSpaceOnUse" color-interpolation-filters="sRGB">
      <feFlood flood-opacity="0" result="BackgroundImageFix"/>
      <feColorMatrix in="SourceAlpha" type="matrix" values="0 0 0 0 0 0 0 0 0 0 0 0 0 0 0 0 0 0 127 0" result="hardAlpha"/>
      <feOffset dy="26"/>
      <feGaussianBlur stdDeviation="28"/>
      <feColorMatrix type="matrix" values="0 0 0 0 0.0156863 0 0 0 0 0.109804 0 0 0 0 0.203922 0 0 0 0.34 0"/>
      <feBlend mode="normal" in2="BackgroundImageFix" result="effect1_dropShadow_1_1"/>
      <feBlend mode="normal" in="SourceGraphic" in2="effect1_dropShadow_1_1" result="shape"/>
    </filter>
    <filter id="shadowSoft" x="158" y="176" width="706" height="724" filterUnits="userSpaceOnUse" color-interpolation-filters="sRGB">
      <feFlood flood-opacity="0" result="BackgroundImageFix"/>
      <feColorMatrix in="SourceAlpha" type="matrix" values="0 0 0 0 0 0 0 0 0 0 0 0 0 0 0 0 0 0 127 0" result="hardAlpha"/>
      <feOffset dy="18"/>
      <feGaussianBlur stdDeviation="20"/>
      <feColorMatrix type="matrix" values="0 0 0 0 0.0117647 0 0 0 0 0.105882 0 0 0 0 0.192157 0 0 0 0.24 0"/>
      <feBlend mode="normal" in2="BackgroundImageFix" result="effect1_dropShadow_1_1"/>
      <feBlend mode="normal" in="SourceGraphic" in2="effect1_dropShadow_1_1" result="shape"/>
    </filter>
  </defs>

  <rect x="38" y="38" width="948" height="948" rx="236" fill="url(#bg)"/>
  <rect x="38" y="38" width="948" height="948" rx="236" stroke="rgba(255,255,255,0.18)" stroke-width="10"/>
  <circle cx="304" cy="238" r="248" fill="url(#glowTop)"/>
  <circle cx="760" cy="778" r="244" fill="url(#glowBottom)"/>
  <rect x="74" y="74" width="876" height="876" rx="210" stroke="rgba(255,255,255,0.09)" stroke-width="6"/>

  <g filter="url(#shadowStrong)">
    <rect x="188" y="254" width="292" height="350" rx="44" transform="rotate(-13 188 254)" fill="url(#cardBackLeft)"/>
    <rect x="188" y="254" width="292" height="350" rx="44" transform="rotate(-13 188 254)" stroke="rgba(255,255,255,0.16)" stroke-width="8"/>
    <rect x="210" y="344" width="164" height="24" rx="12" transform="rotate(-13 210 344)" fill="rgba(255,255,255,0.72)"/>
    <rect x="210" y="402" width="130" height="20" rx="10" transform="rotate(-13 210 402)" fill="rgba(255,255,255,0.58)"/>
    <rect x="210" y="452" width="178" height="20" rx="10" transform="rotate(-13 210 452)" fill="rgba(255,255,255,0.58)"/>
  </g>

  <g filter="url(#shadowStrong)">
    <rect x="582" y="186" width="268" height="322" rx="44" transform="rotate(11 582 186)" fill="url(#cardBackRight)"/>
    <rect x="582" y="186" width="268" height="322" rx="44" transform="rotate(11 582 186)" stroke="rgba(255,255,255,0.12)" stroke-width="8"/>
    <rect x="646" y="280" width="132" height="22" rx="11" transform="rotate(11 646 280)" fill="rgba(122,230,255,0.78)"/>
    <rect x="634" y="334" width="170" height="20" rx="10" transform="rotate(11 634 334)" fill="rgba(122,230,255,0.58)"/>
    <rect x="650" y="390" width="116" height="20" rx="10" transform="rotate(11 650 390)" fill="rgba(122,230,255,0.52)"/>
  </g>

  <g filter="url(#shadowSoft)">
    <rect x="282" y="250" width="460" height="524" rx="66" fill="url(#cardFront)"/>
    <rect x="282" y="250" width="460" height="524" rx="66" stroke="rgba(13,71,114,0.12)" stroke-width="8"/>

    <rect x="356" y="352" width="126" height="28" rx="14" fill="#5EA5DC"/>
    <rect x="356" y="412" width="224" height="26" rx="13" fill="#34C7C6"/>
    <rect x="356" y="468" width="184" height="24" rx="12" fill="#7AADE0"/>

    <path d="M430 606L376 564L430 522" stroke="#0C5D9D" stroke-width="36" stroke-linecap="round" stroke-linejoin="round"/>
    <path d="M594 522L648 564L594 606" stroke="#0C5D9D" stroke-width="36" stroke-linecap="round" stroke-linejoin="round"/>
    <path d="M540 508L486 620" stroke="#22B8B0" stroke-width="34" stroke-linecap="round"/>

    <rect x="356" y="666" width="214" height="24" rx="12" fill="#8CB6E3"/>
    <rect x="590" y="666" width="82" height="24" rx="12" fill="#34C7C6"/>
  </g>

  <g filter="url(#shadowStrong)">
    <circle cx="738" cy="742" r="118" fill="url(#wrench)"/>
    <circle cx="738" cy="742" r="118" stroke="rgba(255,255,255,0.2)" stroke-width="8"/>
    <path d="M764 676C753 684 738 690 721 690C707 690 694 686 683 680L722 719L696 745L655 704C649 716 646 730 646 745C646 793 685 832 733 832C781 832 820 793 820 745C820 717 807 692 786 676L764 698L742 676L764 676Z" fill="#FFF6E8" fill-opacity="0.98"/>
    <rect x="690" y="722" width="34" height="112" rx="17" transform="rotate(-45 690 722)" fill="#FFF6E8"/>
    <circle cx="686" cy="794" r="18" fill="#F3AA4C"/>
  </g>

  <g opacity="0.92">
    <circle cx="248" cy="758" r="24" fill="#7BEAFF"/>
    <circle cx="814" cy="272" r="18" fill="#35C9C8"/>
    <circle cx="864" cy="350" r="10" fill="#FFD37A"/>
  </g>
</svg>
